<svg xmlns="http://www.w3.org/2000/svg" width="621.065" height="240" viewBox="0 0 621.065 240"><path d="M120 0C53.718 0 0 53.742 0 120c0 66.282 53.718 120 120 120s120-53.718 120-120C240 53.742 186.282 0 120 0zm0 231.21C58.588 231.21 8.79 181.436 8.79 120 8.79 58.588 58.589 8.79 120 8.79c61.412 0 111.21 49.798 111.21 111.21 0 61.437-49.798 111.21-111.21 111.21zm0-214.384C63.02 16.826 16.826 63.02 16.826 120c0 39.57 22.257 73.928 54.96 91.242.34.195.682.365 1.047.56h.024A102.002 102.002 0 0 0 87.2 217.84c10.3 3.458 21.33 5.333 32.8 5.333 11.47 0 22.5-1.875 32.8-5.333a102.004 102.004 0 0 0 14.343-6.04c.365-.194.73-.364 1.071-.56 32.703-17.313 54.96-51.671 54.96-91.241 0-56.98-46.194-103.174-103.174-103.174zm17.216 31.753c2.045 0 4.042.244 5.942.755 4.334 1.072 8.181 3.336 11.25 6.405a24.239 24.239 0 0 1 7.037 14.83c.073.778.122 1.558.122 2.361v1.583h-6.234V73.32c0-4.968-2.046-9.497-5.333-12.784-3.287-3.288-7.817-5.333-12.784-5.333v-6.624zm-21.453 93.044a17.933 17.933 0 0 0-3.166-6.039 18.073 18.073 0 0 0-1.29-1.436c-3.19-3.19-7.573-5.163-12.419-5.163h-7.403v-8.303h17.095c.974 0 1.923.195 2.8.535a7.887 7.887 0 0 1 5.114 7.379v-20.43h-3.97c-.511 0-.998-.025-1.51-.05-.17-.024-.34-.024-.51-.048-.366-.049-.756-.097-1.12-.146-.074-.024-.123-.024-.196-.049-.219-.024-.414-.073-.633-.121a6.306 6.306 0 0 1-.974-.22c-.268-.073-.511-.121-.755-.194-.048-.025-.097-.025-.146-.049-.024 0-.024-.024-.048-.024a9.282 9.282 0 0 1-1.072-.366c-.365-.121-.73-.292-1.096-.462a6.422 6.422 0 0 1-.925-.439 9.041 9.041 0 0 1-.95-.511c-.121-.073-.243-.122-.34-.22-.025-.024-.074-.024-.098-.048a5.379 5.379 0 0 1-.78-.511.743.743 0 0 1-.17-.122 3.823 3.823 0 0 1-.633-.463 6.982 6.982 0 0 1-.828-.657.69.69 0 0 1-.243-.22c-.049-.048-.098-.072-.146-.121-.122-.122-.268-.22-.39-.341-.146-.146-.316-.292-.463-.438-.024-.025-.024-.049-.024-.049l-.024-.024c-.414-.39-.78-.804-1.145-1.242-.292-.341-.56-.706-.803-1.072-.195-.219-.341-.414-.439-.633-.048-.024-.048-.049-.073-.073-.243-.34-.438-.682-.633-1.023-.292-.462-.536-.95-.779-1.46-.024-.025-.024-.05-.049-.074-.195-.438-.39-.9-.56-1.363a8.615 8.615 0 0 1-.365-1.12 7.093 7.093 0 0 1-.292-.95v-.024a14.675 14.675 0 0 1-.341-1.486h10.958c.073.244.146.487.243.706.073.244.17.463.292.706.073.195.17.415.268.61.122.218.22.413.341.608.049.073.073.122.122.195.243.414.511.78.803 1.144.244.341.512.633.804.926l.17.17c.293.292.61.56.926.852.268.22.56.414.852.61.073.072.17.12.244.17.219.146.438.267.657.39.024.024.073.024.097.048.341.195.682.365 1.047.511.317.146.658.268.999.39h.024c.073.024.146.024.22.073.267.073.56.146.827.195.317.073.633.146.95.17.17.025.365.049.536.049.365.049.755.073 1.12.073h1.023v-12.54c0-7.768-6.356-14.124-14.124-14.124v-8.182h3.896c5.625 0 10.228 4.602 10.228 10.227V48.58h7.013v27.15c0-5.625 4.602-10.227 10.227-10.227h3.896v8.182c-7.768 0-14.123 6.356-14.123 14.123v12.54h1.022c.633 0 1.242-.048 1.827-.17.267-.024.511-.073.779-.121.268-.049.56-.122.828-.195l.219-.073a17.5 17.5 0 0 0 1.023-.39c.34-.146.706-.316 1.047-.511.34-.195.681-.39.998-.609.292-.195.584-.39.852-.609.39-.316.755-.657 1.096-1.022.292-.293.56-.585.804-.926.292-.365.56-.73.803-1.144.025-.049.073-.122.122-.195.22-.39.438-.803.609-1.218.219-.462.39-.925.535-1.412h10.958c-.097.512-.194 1.023-.34 1.51-.074.317-.171.633-.293.95-.024.17-.073.34-.146.51-.073.22-.146.415-.22.61l-.072.219c-.146.316-.268.657-.414.95-.024.073-.049.121-.073.194-.024.025-.024.05-.049.073a13.91 13.91 0 0 1-.78 1.461c-.194.341-.389.682-.632 1.023a4.724 4.724 0 0 1-.512.706c-.048.098-.121.195-.194.293-.195.267-.39.535-.61.779-.194.219-.364.438-.56.633a4.57 4.57 0 0 1-.584.609c0 .024-.024.048-.048.073-.317.316-.658.633-.999.9a.989.989 0 0 1-.243.22 7.005 7.005 0 0 1-.828.657c-.22.17-.414.341-.633.463-.341.268-.682.487-1.047.682-.122.097-.244.17-.341.219-.025.024-.049.024-.073.049-.292.17-.585.316-.877.462-.292.17-.609.317-.925.439-.366.17-.73.34-1.096.462a9.292 9.292 0 0 1-1.071.366c-.025.024-.025.024-.05.024-.291.097-.584.17-.9.243-.536.147-1.072.268-1.607.341a12.22 12.22 0 0 1-1.315.195c-.17.024-.341.024-.487.049-.512.024-1.023.049-1.534.049h-3.97v20.43a7.887 7.887 0 0 1 5.114-7.379c.073-.024.122-.048.195-.073a7.82 7.82 0 0 1 2.606-.462h17.094v8.303h-7.403c-4.846 0-9.229 1.973-12.419 5.163-.462.462-.876.925-1.29 1.436a17.933 17.933 0 0 0-3.166 6.04 16.795 16.795 0 0 0-.73 4.967v26.542h-7.013v-26.542a16.8 16.8 0 0 0-.73-4.968zM120 26.86c3.945 0 7.524 1.607 10.13 4.212a14.31 14.31 0 0 1 4.188 9.473h-8.4V40.3c0-1.631-.658-3.117-1.73-4.188s-2.556-1.729-4.188-1.729a5.924 5.924 0 0 0-5.917 5.917v.244h-8.401c.34-7.598 6.648-13.685 14.318-13.685zM78.41 72.93c0-.803.072-1.583.12-2.362a24.137 24.137 0 0 1 7.063-14.83c3.068-3.068 6.89-5.332 11.225-6.404 1.9-.511 3.896-.755 5.942-.755v6.624c-4.943 0-9.497 2.045-12.784 5.333-3.288 3.287-5.333 7.816-5.333 12.784v1.193h-6.234V72.93zM56.152 184.724c-16.73-16.485-27.078-39.4-27.078-64.724 0-29.635 14.172-55.933 36.112-72.54h11.59C52.088 62.191 35.553 89.171 35.553 120c0 21.112 7.768 40.446 20.6 55.252v9.472zM84.058 79.627h.195c.39 0 .755.024 1.145.024h.073v9.277a13.398 13.398 0 0 0-1.413-.073c-1.339 0-2.654.171-3.896.488-7.061 1.728-12.297 8.084-12.297 15.681 0 2.922.755 5.65 2.119 8.012a15.869 15.869 0 0 0 3.336 4.09l-6.404 6.673a44.66 44.66 0 0 1-1.096-1.072 25.373 25.373 0 0 1-7.184-17.703c0-14.026 11.396-25.397 25.422-25.397zm90.731 117.248h-37.817c-1.095 7.5-7.134 13.466-14.683 14.464-.755.122-1.51.17-2.289.17-.78 0-1.534-.048-2.289-.17-7.549-.998-13.588-6.964-14.683-14.464H65.21v-61.29h12.054v-14.368H87.71v54.692h18.117c1.29 0 2.557.17 3.75.511 4.237 1.17 7.695 4.286 9.35 8.304a14.021 14.021 0 0 1 1.072 5.357c0-1.9.39-3.701 1.072-5.357 1.655-4.018 5.113-7.135 9.35-8.304 1.193-.34 2.46-.51 3.75-.51h18.117v-54.693h10.446v14.367h12.054v61.29zm-.609-74.148c-.365.366-.73.73-1.096 1.072l-6.404-6.672a15.868 15.868 0 0 0 3.336-4.091c1.364-2.362 2.119-5.09 2.119-8.012 0-7.597-5.236-13.953-12.297-15.681a15.813 15.813 0 0 0-3.896-.488c-.487 0-.95.025-1.413.073v-9.277c.39 0 .755-.024 1.145-.024h.268c14.026 0 25.422 11.371 25.422 25.397 0 6.867-2.752 13.15-7.184 17.703zm9.643 62.021v-9.472c12.833-14.805 20.6-34.14 20.6-55.276 0-30.828-16.533-57.808-41.2-72.54h11.59c21.94 16.607 36.112 42.905 36.112 72.54 0 25.349-10.373 48.263-27.102 64.748zm-21.088-.024h-23.888c-.56 0-1.12.024-1.655.073-2.411.22-4.7.877-6.77 1.948a18.763 18.763 0 0 0-5.454 4.091c-1.608 1.729-2.874 3.799-3.726 6.039h-2.484c-.852-2.24-2.118-4.31-3.726-6.039a18.76 18.76 0 0 0-5.454-4.09c-2.07-1.072-4.359-1.73-6.77-1.949a18.462 18.462 0 0 0-1.655-.073H77.265v-43.1H71.08v49.212h38.498v4.675c0 .463.024.926.097 1.364.658 5.016 4.944 8.961 10.13 9.058h.39c5.186-.097 9.472-4.042 10.13-9.058.073-.438.097-.901.097-1.364v-4.675h38.498v-49.213h-6.185v43.101z" fill="#d30129"/><path d="M298.135 57.524c0 4.588-1.287 8.176-3.861 10.76-2.574 2.585-6.2 3.878-10.878 3.878-4.79 0-8.493-1.314-11.113-3.944-2.618-2.63-3.928-6.307-3.928-11.03v-31.76h-3.458v31.626c0 5.708 1.595 10.157 4.785 13.346 3.189 3.189 7.626 4.784 13.312 4.784 5.842 0 10.395-1.59 13.664-4.768 3.267-3.178 4.902-7.587 4.902-13.227v-31.76h-3.425v32.095zm49.152-.066c0 3.625.1 7.452.302 11.482h-.201l-29.042-43.512h-3.424v49.084h3.29V42.685c0-2.64-.134-6.558-.403-11.75h.269l29.074 43.577h3.459V25.428h-3.324v32.03zm17.222 17.054h3.425V25.428h-3.425v49.084zm32.836-12.153c-1.321 3.537-2.205 6.144-2.652 7.822-.65-2.529-1.914-6.311-3.794-11.348l-12.355-33.405h-3.66l18.298 49.084h3.021l18.365-49.084h-3.726l-13.497 36.93zm24.172 12.153h26.825v-3.155h-23.4V50.306h22.09V47.15h-22.09V28.584h23.4v-3.156h-26.825v49.084zm64.881-27.228c1.735-2.26 2.602-5.036 2.602-8.326 0-4.52-1.456-7.906-4.364-10.155-2.91-2.25-7.409-3.375-13.498-3.375h-11.683v49.084h3.425V53.126h12.187l12.657 21.386h4.096l-13.329-22.36c3.536-.984 6.172-2.606 7.907-4.868zm-14.151 2.887h-9.367V28.517h8.124c5.06 0 8.707.85 10.946 2.552 2.238 1.7 3.356 4.42 3.356 8.158 0 3.603-1.14 6.329-3.424 8.175-2.283 1.847-5.494 2.77-9.635 2.77zm49.621 1.73c-1.925-1.242-4.801-2.524-8.628-3.845-3.648-1.297-6.222-2.411-7.722-3.34-1.5-.928-2.58-1.975-3.24-3.139-.66-1.164-.99-2.652-.99-4.466 0-2.886 1.073-5.17 3.223-6.848 2.149-1.68 5.036-2.519 8.662-2.519 3.714 0 7.61.852 11.683 2.552l1.243-2.955c-4.052-1.745-8.383-2.618-12.994-2.618-4.52 0-8.22 1.158-11.095 3.475-2.877 2.317-4.314 5.31-4.314 8.981 0 3.335.956 6.005 2.87 8.007 1.913 2.003 5.377 3.867 10.39 5.59 3.425 1.165 6.022 2.249 7.79 3.257 1.768 1.007 3.044 2.12 3.827 3.34.784 1.22 1.175 2.759 1.175 4.617 0 2.999-1.18 5.422-3.542 7.268-2.361 1.847-5.556 2.77-9.585 2.77-5.484 0-9.994-.75-13.53-2.249v3.424c3.2 1.32 7.8 1.981 13.8 1.981 4.99 0 8.99-1.197 12-3.593 3.011-2.395 4.517-5.64 4.517-9.735 0-2.238-.443-4.148-1.326-5.725-.885-1.578-2.289-2.988-4.214-4.23zm15.915 22.611h3.424V25.428h-3.424v49.084zm10.708-45.86h15.947v45.86h3.46v-45.86h15.947v-3.224H548.49v3.224zm59.98-12.96c1.936-1.925 3.305-3.469 4.112-4.633v-.572h-4.735c-.58 1.075-1.672 2.648-3.272 4.718s-3.217 3.99-4.851 5.757v.538h2.35a101.359 101.359 0 0 0 6.396-5.808zm9.484 12.892v-3.156H591.13v49.084h26.824v-3.155h-23.4V50.306h22.09V47.15h-22.09V28.584h23.4z" fill="#2c2c2c"/><path d="M275.104 127.436h4.464c6.09 0 10.783-1.398 14.085-4.197 3.301-2.798 4.952-6.837 4.952-12.12 0-5.08-1.55-8.902-4.65-11.465-3.1-2.562-7.627-3.844-13.58-3.844h-15.678v49.084h10.407v-17.458zm0-23.099h4.733c2.843 0 4.93.583 6.263 1.746 1.33 1.164 1.997 2.966 1.997 5.405 0 2.417-.795 4.259-2.384 5.523-1.59 1.265-3.984 1.897-7.185 1.897h-3.424v-14.57zm40.476-8.73l-17.324 49.287h11.213l3.559-11.683h17.894l3.56 11.683h11.214l-17.392-49.286H315.58zm.067 28.874c3.491-11.302 5.607-18.386 6.345-21.252.18.806.475 1.903.89 3.29.414 1.389 2.267 7.375 5.557 17.962h-12.792zm43.195 1.578h5.54l11.718 18.835h11.548c-2.237-3.225-7.05-10.351-14.437-21.387 2.91-1.275 5.16-3.037 6.75-5.287 1.588-2.25 2.383-4.818 2.383-7.705 0-4.947-1.6-8.634-4.801-11.062-3.2-2.43-8.136-3.643-14.807-3.643h-14.3v49.084h10.406v-18.835zm0-21.722h3.156c3.358 0 5.837.493 7.437 1.477 1.6.986 2.4 2.642 2.4 4.969 0 2.35-.784 4.075-2.35 5.17-1.567 1.097-3.995 1.646-7.285 1.646h-3.358v-13.262zm41.954-8.527H390.39v49.084h10.407V95.81zm33.107 45.928c3.19-2.551 4.784-6.045 4.784-10.475 0-3.2-.851-5.903-2.551-8.107-1.702-2.205-4.847-4.405-9.435-6.598-3.47-1.656-5.668-2.804-6.597-3.441-.93-.639-1.606-1.299-2.03-1.981-.426-.683-.639-1.483-.639-2.4 0-1.477.526-2.675 1.578-3.593 1.052-.917 2.562-1.376 4.532-1.376 1.657 0 3.341.212 5.053.637 1.713.426 3.878 1.176 6.497 2.25l3.357-8.092c-2.53-1.096-4.952-1.946-7.269-2.551-2.316-.604-4.75-.906-7.302-.906-5.193 0-9.26 1.242-12.204 3.726-2.943 2.485-4.415 5.899-4.415 10.24 0 2.305.448 4.32 1.343 6.043a15.23 15.23 0 0 0 3.592 4.533c1.5 1.298 3.75 2.652 6.75 4.063 3.199 1.522 5.32 2.63 6.362 3.323 1.04.694 1.828 1.416 2.366 2.164.537.751.806 1.607.806 2.568 0 1.724-.61 3.022-1.83 3.895s-2.971 1.31-5.254 1.31c-1.903 0-4.001-.302-6.295-.906-2.295-.606-5.098-1.645-8.41-3.122v9.67c4.029 1.968 8.661 2.953 13.899 2.953 5.685 0 10.123-1.275 13.312-3.827zm-153.797 23.823h-15.41v49.084h13.9c8.683 0 15.326-2.147 19.925-6.444 4.6-4.3 6.9-10.487 6.9-18.567 0-7.589-2.216-13.498-6.648-17.726-4.431-4.23-10.654-6.347-18.667-6.347zm-.538 40.49h-4.464V174.09h5.54c9.31 0 13.966 5.272 13.966 15.813 0 10.765-5.014 16.15-15.042 16.15zm34.17 8.594h28.268v-8.594h-17.86v-12.658h16.618v-8.527h-16.619v-10.777h17.861v-8.528h-28.268v49.084zm53.639-28.336c-3.47-1.655-5.668-2.804-6.597-3.44-.93-.638-1.606-1.3-2.03-1.982-.426-.682-.639-1.481-.639-2.4 0-1.476.526-2.674 1.578-3.592 1.052-.918 2.562-1.377 4.532-1.377 1.657 0 3.342.214 5.054.637 1.712.426 3.877 1.177 6.496 2.25l3.357-8.09c-2.53-1.096-4.952-1.948-7.268-2.552-2.317-.604-4.752-.906-7.303-.906-5.193 0-9.26 1.242-12.204 3.727-2.943 2.485-4.415 5.897-4.415 10.24 0 2.303.448 4.32 1.344 6.042a15.23 15.23 0 0 0 3.592 4.532c1.499 1.298 3.749 2.654 6.748 4.064 3.2 1.522 5.321 2.63 6.363 3.322 1.04.695 1.828 1.417 2.366 2.166.537.75.806 1.606.806 2.569 0 1.724-.61 3.022-1.83 3.895-1.22.873-2.971 1.308-5.254 1.308-1.902 0-4.001-.302-6.295-.906-2.294-.604-5.098-1.646-8.41-3.123v9.67c4.029 1.97 8.661 2.955 13.899 2.955 5.686 0 10.123-1.277 13.312-3.828 3.19-2.552 4.784-6.043 4.784-10.475 0-3.201-.851-5.903-2.551-8.107-1.702-2.204-4.847-4.404-9.435-6.599zm39.875-12.791c1.79 0 3.614.326 5.472.975a55.62 55.62 0 0 1 5.54 2.283l3.357-8.461c-4.813-2.304-9.602-3.458-14.369-3.458-4.678 0-8.758 1.023-12.238 3.073-3.48 2.047-6.15 4.991-8.007 8.829-1.858 3.838-2.787 8.309-2.787 13.412 0 8.102 1.892 14.318 5.674 18.65 3.782 4.33 9.245 6.497 16.385 6.497 4.968 0 9.468-.84 13.496-2.518v-8.73c-4.902 1.724-9.077 2.585-12.523 2.585-8.214 0-12.321-5.472-12.321-16.417 0-5.26 1.074-9.36 3.222-12.304 2.15-2.944 5.182-4.416 9.1-4.416zm32.254-8.159l-17.323 49.286h11.213l3.559-11.683h17.894l3.559 11.683h11.214l-17.391-49.286h-12.725zm.068 28.874c3.491-11.303 5.606-18.387 6.345-21.253.18.807.475 1.903.89 3.292.414 1.388 2.266 7.374 5.556 17.96h-12.79zm65.894-6.262c1.589-2.25 2.384-4.818 2.384-7.704 0-4.947-1.6-8.635-4.8-11.063-3.202-2.428-8.137-3.643-14.807-3.643h-14.302v49.084h10.408v-18.833h5.54l11.717 18.833h11.548c-2.237-3.222-7.05-10.351-14.436-21.385 2.909-1.277 5.159-3.04 6.748-5.289zm-10.475-2.266c-1.567 1.096-3.995 1.646-7.285 1.646h-3.357v-13.262h3.155c3.358 0 5.837.492 7.437 1.476 1.6.987 2.4 2.642 2.4 4.97 0 2.35-.784 4.074-2.35 5.17zm17.684-11.48h13.329v40.42h10.407v-40.42h13.331v-8.664h-37.067v8.663zm42.762 40.42h28.268v-8.594h-17.861v-12.658h16.62v-8.527h-16.62v-10.777h17.86v-8.528H555.44v49.084zm63.074-21.737c-1.7-2.204-4.846-4.404-9.433-6.599-3.47-1.655-5.67-2.804-6.6-3.44-.926-.638-1.604-1.3-2.03-1.982s-.637-1.481-.637-2.4c0-1.476.525-2.674 1.579-3.592 1.05-.918 2.56-1.377 4.532-1.377a21 21 0 0 1 5.051.637c1.712.426 3.879 1.177 6.497 2.25l3.358-8.09c-2.53-1.096-4.951-1.948-7.27-2.552-2.316-.604-4.749-.906-7.3-.906-5.194 0-9.263 1.242-12.204 3.727-2.944 2.485-4.416 5.897-4.416 10.24 0 2.303.447 4.32 1.343 6.042a15.214 15.214 0 0 0 3.593 4.532c1.499 1.298 3.748 2.654 6.747 4.064 3.2 1.522 5.322 2.63 6.363 3.322 1.04.695 1.829 1.417 2.366 2.166s.807 1.606.807 2.569c0 1.724-.612 3.022-1.83 3.895-1.221.873-2.972 1.308-5.254 1.308-1.903 0-4.003-.302-6.295-.906-2.295-.604-5.098-1.646-8.411-3.123v9.67c4.028 1.97 8.663 2.955 13.9 2.955 5.685 0 10.122-1.277 13.311-3.828 3.19-2.552 4.785-6.043 4.785-10.475 0-3.201-.851-5.903-2.552-8.107z" fill="#d30129"/></svg>